Land_normalized_Motion_pl10
version=1
nRows=18
nColumns=43
inDegrees=yes
endheader
time		pelvis_tilt		pelvis_list		pelvis_rotation		pelvis_tx		pelvis_ty		pelvis_tz		hip_flexion_r		hip_adduction_r		hip_rotation_r		knee_angle_r		ankle_angle_r		subtalar_angle_r		mtp_angle_r		hip_flexion_l		hip_adduction_l		hip_rotation_l		knee_angle_l		ankle_angle_l		subtalar_angle_l		mtp_angle_l		lumbar_extension		lumbar_bending		lumbar_rotation		neck_flexion		neck_lateral_bending		neck_rotation		arm_flex_r		arm_add_r		arm_rot_r		elbow_flex_r		pro_sup_r		wrist_flex_r		wrist_dev_r		hand_finger_flex_r		arm_flex_l		arm_add_l		arm_rot_l		elbow_flex_l		pro_sup_l		wrist_flex_l		wrist_dev_l		hand_finger_flex_l		
0.969545		-3.243501		5.583072		97.531168		0.015060		0.426496		0.505798		91.256131		-8.095023		5.116406		-135.471394		17.618369		3.414178		19.717823		85.771168		-4.843367		1.692938		-137.731856		20.533206		6.449844		29.302094		-64.640112		-4.389678		-1.669471		20.776636		9.670314		-7.180288		63.871648		-37.528371		15.697872		63.154244		120.458659		-26.122710		-16.222454		-24.929648		84.607922		-26.457863		32.468815		66.511447		142.630831		-45.298038		-10.941270		-5.969074		
0.972273		-3.486894		5.580715		97.517390		0.015650		0.424077		0.505486		91.719520		-8.129144		5.244739		-135.890674		17.600804		3.267098		19.738994		85.998194		-5.214341		1.437803		-138.018427		20.709499		6.632105		29.356939		-65.009126		-4.603817		-1.874222		21.179706		9.752974		-7.204721		66.047567		-37.273438		16.326992		62.932041		120.222589		-25.682760		-16.265663		-25.129410		86.991264		-25.630741		33.202018		65.803061		142.785815		-44.506280		-11.266855		-6.046869		
0.975000		-3.718507		5.616152		97.498844		0.016052		0.421747		0.505155		92.130949		-8.172418		5.435894		-136.276985		17.573746		3.083793		19.748327		86.228721		-5.504255		1.207865		-138.347369		20.776890		6.738860		29.409101		-65.395607		-4.782774		-2.063376		21.566637		9.857401		-7.207913		68.214709		-36.950778		16.881116		62.642351		120.078491		-25.230909		-16.240969		-25.256014		89.257356		-24.764127		33.807324		65.073162		143.024434		-43.657749		-11.527627		-6.145207		
0.977727		-4.205680		5.928811		97.463787		0.016554		0.420456		0.505009		92.193602		-8.208854		5.789732		-136.626328		17.473673		2.751285		19.774903		85.972900		-5.679937		0.706688		-138.537578		20.750413		6.686181		29.541994		-66.189038		-5.130607		-2.497048		21.913668		10.078468		-7.144437		70.519141		-36.518824		17.560115		62.191623		119.534376		-24.859358		-16.191967		-25.886894		91.578018		-23.827044		34.301860		64.222048		143.229759		-42.671110		-11.736949		-7.028268		
0.980455		-4.368000		5.853155		97.504284		0.016879		0.418191		0.504853		92.690767		-8.330222		5.882546		-136.973460		17.477559		2.687106		19.796252		86.404715		-5.717291		0.609832		-138.816445		20.599727		6.601646		29.591638		-66.480249		-5.206922		-2.682106		22.262724		10.086717		-7.149359		72.631717		-36.230389		18.122646		61.941118		119.555206		-24.363702		-16.181377		-25.951026		93.709857		-22.966672		34.759430		63.515075		143.555921		-41.721261		-11.874817		-7.264943		
0.983182		-4.642344		5.999838		97.547110		0.017151		0.416678		0.504864		92.901470		-8.472189		6.068250		-137.267026		17.421520		2.534480		19.811714		86.507384		-5.702436		0.401022		-139.032878		20.351044		6.432997		29.655735		-67.061309		-5.326784		-2.958622		22.577211		10.183119		-7.132020		74.859701		-35.883650		18.744553		61.551283		119.543851		-23.889733		-16.082983		-26.075281		95.859731		-22.038009		35.117209		62.702282		143.956370		-40.760904		-11.957514		-7.727791		
0.985909		-4.999975		6.321101		97.615782		0.017239		0.415715		0.504996		92.887012		-8.653521		6.354387		-137.533565		17.362885		2.396567		19.845311		86.350435		-5.624286		0.054505		-139.216086		20.077654		6.113361		29.778516		-67.865718		-5.419667		-3.306706		22.916081		10.205049		-7.070521		77.171480		-35.466345		19.416911		61.051405		119.437354		-23.509348		-15.932950		-26.410713		97.959451		-21.085296		35.345505		61.867436		144.417738		-39.710521		-11.926105		-8.741848		
0.988636		-5.391677		6.604212		97.710090		0.017173		0.414831		0.505185		92.907186		-8.859516		6.742346		-137.789092		17.348931		2.433679		20.011072		86.213722		-5.503775		-0.361634		-139.375820		19.764908		5.676293		30.296468		-68.635852		-5.475204		-3.712946		23.228974		10.148931		-7.000647		79.532541		-35.019293		20.251585		60.436315		119.038738		-22.958195		-15.855941		-27.785329		99.876029		-20.240667		35.356716		61.312022		144.965349		-37.235640		-11.668968		-12.645759		
0.991364		-5.604180		6.616835		97.779764		0.017247		0.413411		0.505312		93.231122		-8.996358		6.963629		-138.024240		17.294102		2.493283		20.156477		86.484446		-5.439306		-0.503029		-139.569384		19.418326		5.589258		30.768817		-69.071897		-5.495523		-3.934978		23.465875		10.122676		-7.013605		81.685931		-34.692259		20.905225		59.966435		118.918845		-22.182865		-15.869677		-28.858110		101.712972		-19.407110		35.406679		60.830334		145.338282		-34.766828		-11.500123		-15.988300		
0.994091		-5.769164		6.667540		97.845290		0.017367		0.412169		0.505312		93.470784		-9.094195		7.118894		-138.255580		17.177277		2.404834		20.145549		86.714437		-5.422484		-0.570234		-139.781208		19.112318		5.695297		30.780644		-69.543605		-5.493006		-4.085997		23.744892		10.118515		-7.055107		83.700890		-34.308020		21.267643		59.562355		119.196748		-21.670430		-15.765534		-28.731739		103.552224		-18.454844		35.528400		60.063143		145.464004		-34.132484		-11.512510		-15.949886		
0.996818		-5.942457		6.585178		97.916844		0.017363		0.410663		0.505046		93.866646		-9.194407		7.349894		-138.521430		17.098282		2.402026		20.144487		87.083119		-5.390950		-0.676049		-140.023444		18.820683		5.778123		30.800428		-69.843291		-5.478276		-4.290103		24.023709		10.089900		-7.094616		85.599911		-33.845118		21.621077		59.140221		119.411173		-21.293739		-15.651536		-28.708968		105.205283		-17.592521		35.586029		59.415867		145.497657		-33.624268		-11.475705		-15.976952		
0.999545		-6.105928		6.287104		97.997116		0.017314		0.408719		0.504438		94.519869		-9.292824		7.632864		-138.837321		17.023138		2.489599		20.153742		87.691732		-5.333304		-0.778417		-140.293142		18.499106		5.897361		30.828852		-69.877785		-5.468631		-4.543915		24.253433		10.067426		-7.129986		87.318981		-33.355437		21.950085		58.769363		119.606857		-20.996793		-15.552659		-28.760862		106.669404		-16.830529		35.617399		58.929171		145.439034		-33.179710		-11.407848		-16.032018		
1.002273		-6.250646		5.685972		98.088588		0.017165		0.406037		0.503392		95.552695		-9.388410		7.990866		-139.222027		16.947809		2.684457		20.178930		88.668712		-5.246028		-0.874883		-140.615356		18.137121		6.073648		30.874064		-69.522671		-5.462209		-4.851357		24.415174		10.079723		-7.162239		88.776386		-32.845746		22.221776		58.505859		119.814969		-20.764484		-15.461948		-28.895621		107.889648		-16.198533		35.640288		58.653918		145.278742		-32.787805		-11.307521		-16.119180		
1.005000		-6.359157		4.700497		98.179888		0.016964		0.402475		0.501897		97.063976		-9.468499		8.405443		-139.673588		16.884702		3.008066		20.230675		90.098185		-5.122893		-0.946942		-140.983257		17.765990		6.298399		30.948644		-68.681855		-5.479108		-5.201483		24.485266		10.128914		-7.174626		89.875190		-32.288534		22.311234		58.415162		120.046132		-20.601700		-15.335232		-29.127979		108.819360		-15.674437		35.622470		58.616114		144.997499		-32.451158		-11.115373		-16.238425		
1.007727		-6.399665		3.510176		98.257319		0.016657		0.398347		0.500065		98.810981		-9.530814		8.834311		-140.157978		16.846330		3.368049		20.302853		91.803327		-5.042516		-0.987354		-141.423558		17.415249		6.553742		31.039123		-67.535730		-5.491040		-5.487331		24.518460		10.226640		-7.188293		90.709001		-31.739975		22.225536		58.465592		120.307417		-20.431642		-15.148266		-29.346236		109.521256		-15.200045		35.602933		58.725194		144.718523		-32.190107		-10.843978		-16.332190		
1.010455		-6.414316		2.173882		98.318515		0.016426		0.394035		0.498102		100.713004		-9.559440		9.237841		-140.650000		16.812286		3.797819		20.410085		93.626959		-4.937187		-0.985637		-141.842633		17.099463		6.807330		31.168339		-66.200733		-5.542232		-5.774187		24.462422		10.344916		-7.183769		91.307683		-31.165625		21.944866		58.662700		120.666669		-20.252775		-14.866720		-29.602545		110.069622		-14.732455		35.535169		58.923294		144.422532		-32.014802		-10.428804		-16.438375		
1.013182		-6.407297		0.926075		98.363553		0.016146		0.390057		0.496302		102.466458		-9.582459		9.625398		-141.076509		16.792098		4.227263		20.551119		95.331435		-4.874265		-0.996824		-142.232181		16.821676		7.038529		31.338674		-64.951117		-5.577614		-5.986978		24.388148		10.474809		-7.173610		91.898426		-30.592787		21.586626		58.862247		121.149817		-19.993898		-14.504749		-29.875945		110.607526		-14.240708		35.495454		59.086839		144.180384		-31.902948		-9.935487		-16.556302		
1.015909		-6.363044		-0.114841		98.391255		0.015957		0.386793		0.494875		103.912433		-9.590364		9.895694		-141.411970		16.766904		4.578169		20.662618		96.770935		-4.815267		-0.926546		-142.545135		16.507763		7.262384		31.452141		-63.958935		-5.574363		-6.153361		24.350483		10.577978		-7.197235		92.748909		-30.100443		21.586829		58.908740		121.548849		-19.695770		-14.251415		-30.004429		111.288704		-13.783444		35.506859		59.111329		144.053406		-31.896913		-9.578232		-16.650721		
